<svg xmlns="http://www.w3.org/2000/svg" width="27.563" height="31.5" viewBox="0 0 27.563 31.5"><path d="M26.824,29.531h-1.23V1.477A1.477,1.477,0,0,0,24.117,0H3.445A1.477,1.477,0,0,0,1.969,1.477V29.531H.738A.738.738,0,0,0,0,30.27V31.5H27.563V30.27A.738.738,0,0,0,26.824,29.531ZM7.875,4.676a.738.738,0,0,1,.738-.738h2.461a.738.738,0,0,1,.738.738V7.137a.738.738,0,0,1-.738.738H8.613a.738.738,0,0,1-.738-.738Zm0,5.906a.738.738,0,0,1,.738-.738h2.461a.738.738,0,0,1,.738.738v2.461a.738.738,0,0,1-.738.738H8.613a.738.738,0,0,1-.738-.738Zm3.2,9.105H8.613a.738.738,0,0,1-.738-.738V16.488a.738.738,0,0,1,.738-.738h2.461a.738.738,0,0,1,.738.738v2.461A.738.738,0,0,1,11.074,19.688Zm4.676,9.844H11.813V24.363a.738.738,0,0,1,.738-.738h2.461a.738.738,0,0,1,.738.738Zm3.938-10.582a.738.738,0,0,1-.738.738H16.488a.738.738,0,0,1-.738-.738V16.488a.738.738,0,0,1,.738-.738h2.461a.738.738,0,0,1,.738.738Zm0-5.906a.738.738,0,0,1-.738.738H16.488a.738.738,0,0,1-.738-.738V10.582a.738.738,0,0,1,.738-.738h2.461a.738.738,0,0,1,.738.738Zm0-5.906a.738.738,0,0,1-.738.738H16.488a.738.738,0,0,1-.738-.738V4.676a.738.738,0,0,1,.738-.738h2.461a.738.738,0,0,1,.738.738Z" fill="#1988a7"/></svg>