<svg xmlns="http://www.w3.org/2000/svg" width="428.758" height="302.157" viewBox="0 0 428.758 302.157"><g transform="translate(0.035)"><path d="M23.35,0A23.35,23.35,0,1,1,0,23.35,23.35,23.35,0,0,1,23.35,0Z" transform="translate(195.624 254.817)" fill="#f6c364"/><path d="M597.018,475.665c13.063-3.923,26.951-8.014,37.31-17.34,9.257-8.334,15.507-21.062,11.672-33.558-3.827-12.472-15.291-20.79-27.127-24.926a111.287,111.287,0,0,0-20.756-4.67c-7.632-1.113-15.3-2.022-22.959-2.9q-46.536-5.322-93.422-6.5c-15.423-.389-30.844-.38-46.27-.155-13.776.2-28.285.195-41.064-5.66-9.938-4.553-18.958-12.837-21.727-23.722-3.2-12.565,2.7-25.362,11.157-34.463a90.337,90.337,0,0,1,15.043-12.547c5.831-4.028,11.865-7.77,18.03-11.262a251.082,251.082,0,0,1,37.95-17.5c6.47-2.352,13.036-4.382,19.659-6.255a168.165,168.165,0,0,0,16.609-5.319c10.449-4.164,20.386-11.218,23.042-22.782,2.518-10.96-1.728-22.858-9.17-31-8.611-9.42-21.593-13.547-34.04-14.217-13.974-.75-27.625,2.747-40.759,7.185-14.011,4.732-27.714,10.177-42.018,14.011a282.7,282.7,0,0,1-43.246,8.039c-7.145.761-14.513,1.621-21.7,1.038-6.031-.488-12.022-2.26-16.464-6.538-3.8-3.667-6.077-8.707-5.3-14.026.142-.966,1.609-.557,1.469.4-.949,6.475,3.452,12.441,8.875,15.5,6.268,3.532,13.895,3.537,20.877,3.132a273.009,273.009,0,0,0,44.93-6.5c14.514-3.315,28.508-8.054,42.489-13.116,13.277-4.808,26.85-9.5,41.035-10.541,12.307-.9,25.254.89,35.976,7.321a39.8,39.8,0,0,1,18.557,25.9c2.157,10.57-.835,21.21-8.832,28.587-8.285,7.637-19.645,10.9-30.231,13.91a276.966,276.966,0,0,0-39.287,14.064,246.62,246.62,0,0,0-36.954,20.775c-11.292,7.717-22.437,17.426-26.008,31.193a28.735,28.735,0,0,0,1.427,19.271,35.216,35.216,0,0,0,11.3,13.41c11.33,8.337,25.609,10.049,39.3,10.219,15.371.191,30.743-.328,46.115-.075q47,.771,93.814,5.722,11.73,1.241,23.429,2.745a211.86,211.86,0,0,1,20.953,3.4c12.265,2.847,24.2,8.32,31.826,18.72a29.6,29.6,0,0,1,2.521,32.369c-5.854,11.517-16.819,18.844-28.463,23.66a201.965,201.965,0,0,1-19.163,6.47.762.762,0,1,1-.4-1.469Z" transform="translate(-238.551 -175.461)" fill="#f2f2f2"/><circle cx="12.183" cy="12.183" r="12.183" transform="translate(51.718 23.096)" fill="#f2f2f2"/><circle cx="12.183" cy="12.183" r="12.183" transform="translate(136.234 46.192)" fill="#f2f2f2"/><circle cx="12.183" cy="12.183" r="12.183" transform="translate(207.807 0)" fill="#f2f2f2"/><circle cx="12.183" cy="12.183" r="12.183" transform="translate(252.476 51.776)" fill="#f2f2f2"/><circle cx="12.183" cy="12.183" r="12.183" transform="translate(192.071 111.673)" fill="#f2f2f2"/><circle cx="12.183" cy="12.183" r="12.183" transform="translate(115.423 140.606)" fill="#f2f2f2"/><circle cx="12.183" cy="12.183" r="12.183" transform="translate(196.639 185.783)" fill="#f2f2f2"/><circle cx="12.183" cy="12.183" r="12.183" transform="translate(283.947 211.163)" fill="#f2f2f2"/><circle cx="12.183" cy="12.183" r="12.183" transform="translate(385.975 205.579)" fill="#f2f2f2"/><path d="M539.235,220.371a67.571,67.571,0,0,0-66.891,66.4c0,.337-.007,2.706-.006,5.8a17.13,17.13,0,0,0,17.13,17.13h0a17.14,17.14,0,0,0,17.138-17.15V288.9a32.487,32.487,0,1,1,50.012,27.35l.006.007s-24.38,15.695-31.812,37.225h.006a47.72,47.72,0,0,0-1.966,13.588c0,1.891.111,18.437.327,31.866a17.658,17.658,0,0,0,17.66,17.371h0A17.663,17.663,0,0,0,558.5,398.532c-.074-12.3-.115-26.619-.115-27.659,0-13.22,12.753-26.393,23.23-34.98a70.458,70.458,0,0,0,24.223-38.575,44.037,44.037,0,0,0,1.268-9.557,67.384,67.384,0,0,0-67.871-67.382Z" transform="translate(-322.762 -185.853)" fill="#f6c364"/><path d="M605.817,746.458H178.264a.6.6,0,1,1,0-1.206h427.55a.6.6,0,0,1,0,1.206Z" transform="translate(-177.662 -444.302)" fill="#3f3d56"/><circle cx="15.228" cy="15.228" r="15.228" transform="translate(303.772 108.117)" fill="#2f2e41"/><path d="M564.1,558.845h-6.223l-2.961-24h9.186Z" transform="translate(-273.243 -263.354)" fill="#a0616a"/><path d="M544.666,578.626h12v7.557H537.109a7.556,7.556,0,0,1,7.556-7.557Z" transform="translate(-264.473 -284.913)" fill="#2f2e41"/><path d="M659.1,558.845h-6.222l-2.961-24h9.186Z" transform="translate(-320.021 -263.354)" fill="#a0616a"/><path d="M639.666,578.626h12v7.557H632.109a7.557,7.557,0,0,1,7.556-7.557Z" transform="translate(-311.251 -284.913)" fill="#2f2e41"/><circle cx="12.468" cy="12.468" r="12.468" transform="translate(304.219 113.728)" fill="#a0616a"/><path d="M772.951,470.263l5.578-12.817A15.93,15.93,0,0,0,775,439.375a16.185,16.185,0,0,0-1.559-1.356,15.7,15.7,0,0,0-9.639-3.335A16.331,16.331,0,0,0,757,436.2c-.186.082-.36.167-.544.253-.35.168-.7.351-1.03.538a16.08,16.08,0,0,0-7.969,12.122L745,469.74c-.619,1.619-22.71,60.095-14.984,104.739a2.268,2.268,0,0,0,1.939,1.863l7.832,1.066a2.283,2.283,0,0,0,2.543-1.792l13.142-62.644a1.779,1.779,0,0,1,3.452-.117l18.568,65.878a2.269,2.269,0,0,0,2.188,1.665,2.593,2.593,0,0,0,.442-.041l9.568-1.843a2.27,2.27,0,0,0,1.843-2.441C790.123,560.393,782.651,481.851,772.951,470.263Z" transform="translate(-448.834 -291.38)" fill="#2f2e41"/><path d="M706.068,416.985a5.1,5.1,0,0,0,5.382,5.687l6.969,16.747,5.271-7.815L716.267,416.9a5.132,5.132,0,0,0-10.193.085Z" transform="translate(-437.833 -280.415)" fill="#a0616a"/><path d="M794.588,518.072a5.1,5.1,0,0,0,4.278-6.554l14.66-10.679-8.828-3.306-12.571,10.648a5.132,5.132,0,0,0,2.458,9.892Z" transform="translate(-478.593 -322.327)" fill="#a0616a"/><path d="M735.622,463.375a8.654,8.654,0,0,1-1.67-.165,8.276,8.276,0,0,1-6.065-4.881l-9.764-11.9a2.284,2.284,0,0,1,.564-3.391l6.946-4.3a2.284,2.284,0,0,1,3.155.756l6.881,11.337,13.176-9.743a4.934,4.934,0,0,1,5.741,7.9l-13.154,12a8.249,8.249,0,0,1-5.81,2.39Z" transform="translate(-443.529 -293.205)" fill="#2f2e41"/><path d="M815.042,484.889h-.054a2.288,2.288,0,0,1-1.68-.8l-6.176-7.2a2.284,2.284,0,0,1,.464-3.388l11.564-7.71-10.477-12.595a4.934,4.934,0,0,1,7.565-6.183l12.732,12.443a8.388,8.388,0,0,1-1.866,13.675l-10.407,11.041A2.288,2.288,0,0,1,815.042,484.889Z" transform="translate(-487.344 -296.815)" fill="#2f2e41"/><path d="M788.617,451.677a2.352,2.352,0,0,1-.3-.018,2.265,2.265,0,0,1-1.884-1.558L781.8,435.872a1.564,1.564,0,0,1,.809-1.891l.15-.071c.136-.065.272-.129.41-.19a16.535,16.535,0,0,1,6.905-1.535,15.9,15.9,0,0,1,8.711,2.618,1.589,1.589,0,0,1,.458,2.18l-8.705,13.64a2.261,2.261,0,0,1-1.919,1.055Z" transform="translate(-475.102 -290.15)" fill="#e6e6e6"/><circle cx="4.983" cy="4.983" r="4.983" transform="translate(326.023 106.581)" fill="#2f2e41"/><path d="M783.309,361.365h0a13.2,13.2,0,0,0-13.2,13.2v5.584h6.866l3.285-5.584.985,5.584h20.842l-5.584-5.584a13.2,13.2,0,0,0-13.2-13.2Z" transform="translate(-469.384 -255.278)" fill="#2f2e41"/><path d="M834.809,360.243a7.69,7.69,0,0,1,8.366-5.277c3.175.531,5.686,3.083,7.183,5.938s2.187,6.041,3.193,9.1,2.432,6.134,4.97,8.113,6.435,2.517,8.929.481a10.212,10.212,0,0,1-19.021,3.646c-1.316-2.341-1.655-5.085-2.041-7.741s-.9-5.406-2.468-7.583-4.511-3.6-7.007-2.608Z" transform="translate(-501.242 -252.093)" fill="#2f2e41"/><path d="M494.073,328.663h0a17.13,17.13,0,0,1-17.128-17.126c0-3.1,0-5.471.007-5.807a66.752,66.752,0,0,1,7.794-30.41,66.9,66.9,0,0,0-12.872,38.531c0,.337-.006,2.706-.006,5.8a17.13,17.13,0,0,0,17.127,17.129h0A17.143,17.143,0,0,0,505.486,324.3,17.067,17.067,0,0,1,494.073,328.663Z" transform="translate(-322.529 -212.909)" fill="#fff"/><path d="M580.925,283.565a32.488,32.488,0,0,1,28.252,45.386,32.485,32.485,0,1,0-54.529-34A32.421,32.421,0,0,1,580.925,283.565Z" transform="translate(-363.291 -212.951)" fill="#fff"/><path d="M594.426,523.214h0a17.66,17.66,0,0,1-17.659-17.377c-.215-13.423-.327-29.968-.327-31.86a47.714,47.714,0,0,1,1.966-13.588H578.4a48.274,48.274,0,0,1,2.789-6.447,55.863,55.863,0,0,0-7.865,14.568h.006a47.718,47.718,0,0,0-1.966,13.588c0,1.891.111,18.437.327,31.866a17.658,17.658,0,0,0,17.659,17.371h0a17.664,17.664,0,0,0,16.953-12.71A17.594,17.594,0,0,1,594.426,523.214Z" transform="translate(-371.523 -300.861)" fill="#fff"/><path d="M126.54,559.3h6.222l2.961-24h-9.186Z" transform="translate(-62.309 -263.578)" fill="#ffb8b8"/><path d="M0,0H19.558V7.557h-12A7.557,7.557,0,0,1,0,0Z" transform="translate(82.454 301.5) rotate(179.997)" fill="#2f2e41"/><path d="M82.54,559.3h6.223l2.961-24H82.538Z" transform="translate(-40.644 -263.578)" fill="#ffb8b8"/><path d="M0,0H19.558V7.557h-12A7.557,7.557,0,0,1,0,0Z" transform="translate(60.119 301.5) rotate(179.997)" fill="#2f2e41"/><path d="M262.84,639.625l-6.078-.32a2.373,2.373,0,0,1-2.243-2.521l7.265-80.438,33.457,9.028,3.223-.88L288.384,635.7a2.384,2.384,0,0,1-2.212,2l-6.553.305a2.373,2.373,0,0,1-2.505-2.434l1.188-42.738a.791.791,0,0,0-1.565-.186l-11.45,45.081a2.358,2.358,0,0,1-2.32,1.891A1.176,1.176,0,0,1,262.84,639.625Z" transform="translate(-215.506 -351.287)" fill="#2f2e41"/><circle cx="12.468" cy="12.468" r="12.468" transform="translate(52.88 114.312)" fill="#ffb8b8"/><path d="M265.49,455.126l1.37,29.577.5,10.763a2.357,2.357,0,0,0,1.561,2.119l32.149,11.647a2.27,2.27,0,0,0,.812.142,2.357,2.357,0,0,0,2.367-2.43l-1.318-53.18a18.743,18.743,0,0,0-15.606-18.11c-.311-.047-.627-.093-.944-.137a18.4,18.4,0,0,0-14.8,4.792,18.9,18.9,0,0,0-6.084,14.82Z" transform="translate(-220.901 -291.72)" fill="#ccc"/><path d="M352.64,547.12a5.108,5.108,0,0,1-2.725-7.729l-10.9-14.5,9.408-.583,8.907,13.856a5.132,5.132,0,0,1-4.691,8.952Z" transform="translate(-257.111 -335.513)" fill="#ffb8b8"/><path d="M333.084,501.135a2.358,2.358,0,0,1-1.29-1.279l-16.423-39.134a6.327,6.327,0,0,1,11.667-4.9l16.423,39.133a2.375,2.375,0,0,1-1.269,3.106l-7.292,3.062a2.356,2.356,0,0,1-1.816.008Z" transform="translate(-245.23 -299.881)" fill="#ccc"/><path d="M298.236,515.541l15.774-30.207a2.477,2.477,0,0,1,3.34-1.048l22.9,11.961a2.476,2.476,0,0,1,1.048,3.34L325.522,529.8a2.477,2.477,0,0,1-3.34,1.048l-22.9-11.959a2.476,2.476,0,0,1-1.047-3.342Z" transform="translate(-236.897 -315.666)" fill="#3f3d56"/><path d="M297.022,507.02a5.109,5.109,0,0,0-7.877-2.264L274.03,494.729l-.03,9.425,14.358,8.072a5.132,5.132,0,0,0,8.66-5.212Z" transform="translate(-225.103 -320.946)" fill="#ffb8b8"/><path d="M263.957,484.179,251.6,474.394a8.712,8.712,0,0,1-3.971-13.774l11.217-14.7a5.125,5.125,0,0,1,8.695,5.22l-8.875,14.517,13.042,6.186a2.373,2.373,0,0,1,.989,3.411l-5.265,8.332a2.376,2.376,0,0,1-1.607,1.072l-.039.006A2.383,2.383,0,0,1,263.957,484.179Z" transform="translate(-211.148 -295.989)" fill="#ccc"/><path d="M281.9,393.441a1.084,1.084,0,0,1,.943-1.431,2.505,2.505,0,0,1,1.763.87,7.021,7.021,0,0,0,1.559,1.339,1.341,1.341,0,0,0,1.763-.319,2.455,2.455,0,0,0-.093-1.9,18.734,18.734,0,0,1-.828-4.959,8.732,8.732,0,0,1,1.249-5.3,7.016,7.016,0,0,1,6.013-2.556,40.409,40.409,0,0,1,6.755,1.2,2.268,2.268,0,0,0,2.209-.371c.557-.64.35-1.676.114-2.54a17.64,17.64,0,0,0-2.672-6.372,9.594,9.594,0,0,0-6.124-3.447,14.69,14.69,0,0,0-6.834.776,18.323,18.323,0,0,0-8.976,6.253,14.84,14.84,0,0,0-2.832,10.964,13.537,13.537,0,0,0,5.018,8.556Z" transform="translate(-225.972 -258.314)" fill="#2f2e41"/><path d="M581.22,699.948a23.347,23.347,0,0,1-8.665-36.288,23.349,23.349,0,1,0,31.76,33.737,23.334,23.334,0,0,1-23.1,2.551Z" transform="translate(-367.39 -404.127)" fill="#fff"/></g></svg>