<svg xmlns="http://www.w3.org/2000/svg" xmlns:xlink="http://www.w3.org/1999/xlink" width="310.964" height="277.815" viewBox="0 0 310.964 277.815"><defs><linearGradient id="a" y1="0.5" x2="1" y2="0.5" gradientUnits="objectBoundingBox"><stop offset="0" stop-color="gray" stop-opacity="0.251"/><stop offset="0.535" stop-color="gray" stop-opacity="0.122"/><stop offset="1" stop-color="gray" stop-opacity="0.102"/></linearGradient></defs><g transform="translate(-0.004)"><path d="M429.587,76.854,332,136.909s0,123.863,97.589,191.425c97.589-67.562,97.589-191.425,97.589-191.425Z" transform="translate(-273.486 -72.966)" fill="#1988a7"/><path d="M600.368,76.854,598.7,77.881V327.162c.554.392,1.108.784,1.668,1.171,97.589-67.562,97.589-191.425,97.589-191.425Z" transform="translate(-443.685 -72.966)" fill="#000302" opacity="0.18"/><g transform="translate(124.809 109.547)" opacity="0.7"><path d="M352.587,318.786l18.4,16.864,22.806-32.9,9.2,7.666-32,40.566-26.063-29.129Z" transform="translate(-344.921 -302.75)" fill="url(#a)"/></g><path d="M367.139,319.161l14.923,13.68L403.2,301.75l7.462,6.218-28.6,37.309-21.142-23.629Z" transform="translate(-230.322 -192.565)" fill="#3ad29f"/><path d="M327.75,109.722a1.33,1.33,0,0,1-.741-1.607.637.637,0,0,0,.029-.147h0a.667.667,0,0,0-1.2-.442h0a.639.639,0,0,0-.074.131,1.33,1.33,0,0,1-1.607.741.639.639,0,0,0-.147-.029h0a.667.667,0,0,0-.442,1.2h0a.638.638,0,0,0,.131.074,1.33,1.33,0,0,1,.741,1.607.641.641,0,0,0-.029.147h0a.667.667,0,0,0,1.2.442h0a.637.637,0,0,0,.074-.131,1.33,1.33,0,0,1,1.607-.741.638.638,0,0,0,.147.029h0a.667.667,0,0,0,.442-1.2h0A.641.641,0,0,0,327.75,109.722Z" transform="translate(-267.939 -92.37)" fill="#4d8af0" opacity="0.5"/><path d="M181.75,434.722a1.33,1.33,0,0,1-.741-1.607.639.639,0,0,0,.029-.147h0a.667.667,0,0,0-1.2-.442h0a.639.639,0,0,0-.074.131,1.33,1.33,0,0,1-1.607.741.639.639,0,0,0-.147-.029h0a.667.667,0,0,0-.442,1.2h0a.639.639,0,0,0,.131.074,1.33,1.33,0,0,1,.741,1.607.64.64,0,0,0-.029.147h0a.667.667,0,0,0,1.2.442h0a.641.641,0,0,0,.074-.131,1.33,1.33,0,0,1,1.607-.741.641.641,0,0,0,.147.029h0a.667.667,0,0,0,.442-1.2h0a.641.641,0,0,0-.131-.074Z" transform="translate(-174.768 -299.772)" fill="#4d8af0" opacity="0.5"/><circle cx="2.171" cy="2.171" r="2.171" transform="translate(268.633 89.736)" fill="#f55f44" opacity="0.5"/><circle cx="2.171" cy="2.171" r="2.171" transform="translate(41.759 244.966)" fill="#f55f44" opacity="0.5"/><circle cx="2.171" cy="2.171" r="2.171" transform="translate(305.541 173.322)" fill="#f55f44" opacity="0.5"/><path d="M866.75,138.722a1.33,1.33,0,0,1-.741-1.607.633.633,0,0,0,.029-.147h0a.667.667,0,0,0-1.2-.442h0a.64.64,0,0,0-.074.131,1.33,1.33,0,0,1-1.607.741.638.638,0,0,0-.148-.029h0a.667.667,0,0,0-.442,1.2h0a.637.637,0,0,0,.131.074,1.33,1.33,0,0,1,.741,1.607.643.643,0,0,0-.029.147h0a.667.667,0,0,0,1.2.442h0a.644.644,0,0,0,.074-.131,1.329,1.329,0,0,1,1.607-.741.639.639,0,0,0,.147.029h0a.667.667,0,0,0,.442-1.2h0A.638.638,0,0,0,866.75,138.722Z" transform="translate(-611.907 -110.877)" fill="#4d8af0" opacity="0.5"/><path d="M966.75,766.722a1.33,1.33,0,0,1-.741-1.607.642.642,0,0,0,.029-.147h0a.667.667,0,0,0-1.2-.442h0a.645.645,0,0,0-.074.131,1.33,1.33,0,0,1-1.607.741.641.641,0,0,0-.147-.029h0a.667.667,0,0,0-.442,1.2h0a.639.639,0,0,0,.131.074,1.33,1.33,0,0,1,.741,1.607.639.639,0,0,0-.029.147h0a.667.667,0,0,0,1.2.442h0a.641.641,0,0,0,.074-.131,1.33,1.33,0,0,1,1.607-.741.643.643,0,0,0,.147.029h0a.667.667,0,0,0,.442-1.2h0A.65.65,0,0,0,966.75,766.722Z" transform="translate(-675.723 -511.641)" fill="#4d8af0" opacity="0.5"/><path d="M174.75,244.722a1.33,1.33,0,0,1-.741-1.607.641.641,0,0,0,.029-.147h0a.667.667,0,0,0-1.2-.442h0a.639.639,0,0,0-.074.131,1.33,1.33,0,0,1-1.607.741.638.638,0,0,0-.147-.029h0a.667.667,0,0,0-.442,1.2h0a.64.64,0,0,0,.131.074,1.33,1.33,0,0,1,.741,1.607.639.639,0,0,0-.029.147h0a.667.667,0,0,0,1.2.442h0a.638.638,0,0,0,.074-.131,1.33,1.33,0,0,1,1.607-.741.641.641,0,0,0,.147.029h0a.667.667,0,0,0,.442-1.2h0A.64.64,0,0,0,174.75,244.722Z" transform="translate(-170.3 -178.522)" fill="#4d8af0" opacity="0.5"/><circle cx="2.171" cy="2.171" r="2.171" transform="translate(26.562 100.592)" fill="#47e6b1" opacity="0.5"/><circle cx="2.171" cy="2.171" r="2.171" transform="translate(306.626 117.96)" fill="#47e6b1" opacity="0.5"/><g transform="translate(208.567)" opacity="0.5"><rect width="1.086" height="6.151" transform="translate(2.533)" fill="#47e6b1"/><rect width="1.086" height="6.151" transform="translate(6.151 2.533) rotate(90)" fill="#47e6b1"/></g><g transform="translate(212.548 240.986)" opacity="0.5"><rect width="1.086" height="6.151" transform="translate(2.533)" fill="#47e6b1"/><rect width="1.086" height="6.151" transform="translate(6.151 2.533) rotate(90)" fill="#47e6b1"/></g><g transform="translate(7.022 254.012)" opacity="0.5"><rect width="1.086" height="6.151" transform="translate(2.533)" fill="#47e6b1"/><rect width="1.086" height="6.151" transform="translate(6.151 2.533) rotate(90)" fill="#47e6b1"/></g><g transform="translate(254.159 143.289)" opacity="0.5"><rect width="1.086" height="6.151" transform="translate(2.533)" fill="#47e6b1"/><rect width="1.086" height="6.151" transform="translate(6.151 2.533) rotate(90)" fill="#47e6b1"/></g><path d="M793.892,118.22l2.331,2.137,3.3-4.857,1.166.972-4.469,5.829-3.3-3.692Z" transform="translate(-506.007 -73.707)" fill="#47e6b1" opacity="0.5"/><rect width="8.048" height="10.348" transform="translate(213.288 86.89) rotate(-2.221)" fill="#1bbca5"/><path d="M662.379,400.881s-11.137-5.321-10.959-.726,11.226,7.619,11.226,7.619Z" transform="translate(-477.327 -278.09)" fill="#ffb9b9"/><path d="M680.726,502.072s-5.254,12.86-7.2,22.141-4.9,22.051-1.095,31.109S687.051,591,687.162,593.871s-.926,5.789,1.372,5.7,14.8-4.026,15.309-5.771-4.266-6.163-4.266-6.163L687.789,550.7l12.3-24.064,8.871,35.9,1.737,44.806s8.527-2.632,9.765-.379c0,0,3.821-5.326,4.306-7.646s-1.8-46.529-1.8-46.529,7.828-50.355,1.509-50.11S693.4,487.773,680.726,502.072Z" transform="translate(-489.564 -340.398)" fill="#1bbca5"/><path d="M704.194,769.038s-5.829,12.883-6.381,13.479-4.35,6.5-1.478,6.386,9.654-3.251,14.646-8.047,11.573-13.105,10.977-13.658a33.907,33.907,0,0,0-4.685-2.12Z" transform="translate(-505.313 -512.163)" fill="#575a89"/><path d="M780.73,793.947s-.352,5.767-1.411,8.109-.926,5.789,1.946,5.678,10.3-1.55,10.3-1.55.441-3.469-.156-4.021-3.14-6.782-2.057-8.55S780.73,793.947,780.73,793.947Z" transform="translate(-558.56 -529.921)" fill="#575a89"/><path d="M781.335,278.6s6.123,9.543,8.51,11.751-4.328,7.071-4.328,7.071L773.5,299.04s.151-10.937-.468-12.063S781.335,278.6,781.335,278.6Z" transform="translate(-554.916 -201.712)" fill="#ffb9b9"/><path d="M744.635,308.473s2.476,4.506,4.774,4.417,14.183-5.152,14.69-6.9,3.937,12.5,3.937,12.5l-29.082,51.179-7.094-4.9,3.437-30.049,2.823-16.218Z" transform="translate(-528.662 -219.098)" fill="#1bbca5"/><path d="M739.409,348.178a16.1,16.1,0,0,0-1.784,7.548c0,.115.009.23.019.344.275,5.317,2.234,11.465,2.936,15.937.51,3.208.365,5.549-1.512,6.1-4.551,1.327.664,2.275-16.944,8.136s-20.68.8-20.724-.347,2.494-9.877,1.9-10.429-8.349,7.227-10.692,6.168-.267-6.893-.267-6.893,5.277-12.286,5.165-15.158,7.993-16.418,7.993-16.418l5.512-35.882s2.12-4.685,4.969-5.37a7.06,7.06,0,0,1,5.214.948l-4.769,10.54-5.032,18.6.842,6.871s5.851-12.308,9.694-17.06,12.036-16,12.036-16,1.913-6.454.469-8.383,6.023-2.224,9.208,5.707c1.688,4.2,4.427,10.471,6.144,16.307,1.529,5.17,2.252,10,.737,12.766C748.2,336.435,742.379,341.982,739.409,348.178Z" transform="translate(-502.9 -213)" fill="#1988a7"/><path d="M830.954,370.54c-2.316,4.22-8.141,9.768-11.111,15.964-.776-2.795-1.722-5.686-1.722-5.686s-3.63-19.419,7.107-24.438a7.185,7.185,0,0,1,4.99,1.394C831.747,362.944,832.469,367.777,830.954,370.54Z" transform="translate(-583.333 -251.326)" opacity="0.1"/><path d="M696.209,392.191l-9.1,2.654-12.638.49-1.3,10.981,20.769,1.5S699.126,393.228,696.209,392.191Z" transform="translate(-491.208 -274.201)" fill="#1988a7"/><path d="M760.56,494.231s-12.177,2.02-9.4,5.684,13.566-.188,13.566-.188Z" transform="translate(-540.717 -339.319)" fill="#ffb9b9"/><path d="M787.455,461.5c.275,5.317,2.234,11.465,2.936,15.937-3.879,3.671-7.568,6.909-8.958,6.963-2.872.111-7.49-.285-9.191.356s-2.7-10.251-2.7-10.251a9.419,9.419,0,0,1,5.544-5.393A63.07,63.07,0,0,0,787.455,461.5Z" transform="translate(-552.711 -318.434)" opacity="0.1"/><path d="M794.235,346.845s9.721-1.528,9.2,14.6,1.025,26.424-2.885,29.452-16.609,16.753-19.482,16.864-7.49-.285-9.191.356-2.7-10.251-2.7-10.251a9.42,9.42,0,0,1,5.544-5.393c4.529-1.9,15.2-8.644,15.109-10.941s-2.7-10.251-2.7-10.251S783.5,351.863,794.235,346.845Z" transform="translate(-552.475 -245.238)" fill="#1988a7"/><circle cx="12.647" cy="12.647" r="12.647" transform="translate(205.2 65.724)" fill="#ffb9b9"/><path d="M736.938,228.1a2.442,2.442,0,0,1-1.063.534.759.759,0,0,1-.879-.609,3.153,3.153,0,0,1-1.207,1.548c-.591.308-1.5.05-1.589-.611a2.789,2.789,0,0,1-.642,1.355.961.961,0,0,1-1.351.045,34.712,34.712,0,0,1,.18,4.3,5.479,5.479,0,0,0,1.548,3.9c1.581,1.376,3.959,1.037,6.039.776a1.833,1.833,0,0,1,.946.052c.779.332.744,1.416.754,2.262a6.286,6.286,0,0,0,5.5,5.969,3.151,3.151,0,0,0,2.342-.572c.591-.5.892-1.316,1.569-1.692,1.1-.612,2.436.28,3.241,1.249s1.6,2.16,2.845,2.337c1.649.234,2.9-1.446,3.521-2.993a17.449,17.449,0,0,0-.347-13.558C754.906,224.887,743.145,223.7,736.938,228.1Z" transform="translate(-527.607 -167.853)" fill="#2f2e41"/></g></svg>