<svg xmlns="http://www.w3.org/2000/svg" xmlns:xlink="http://www.w3.org/1999/xlink" width="326.756" height="218.204" viewBox="0 0 326.756 218.204"><defs><linearGradient id="a" x1="0.5" y1="1" x2="0.5" gradientUnits="objectBoundingBox"><stop offset="0" stop-color="gray" stop-opacity="0.251"/><stop offset="0.54" stop-color="gray" stop-opacity="0.122"/><stop offset="1" stop-color="gray" stop-opacity="0.102"/></linearGradient></defs><g transform="translate(-0.003 0.002)"><path d="M294.179,138.409c-20.369-.708-39.769-7.283-58.3-14.477s-36.874-15.167-56.755-18.978c-12.787-2.452-27.41-2.8-37.714,4.057C131.5,115.62,128.3,127,126.571,137.563c-1.294,7.953-2.058,16.319,1.495,23.762,2.464,5.168,6.842,9.511,9.87,14.462,10.531,17.222,3.087,38.46-8.328,55.276-5.35,7.887-11.563,15.422-15.7,23.812s-6.043,18.018-2.43,26.585c3.585,8.5,12.123,14.868,21.37,19.353,18.786,9.108,40.915,11.717,62.511,13.193,47.782,3.27,95.822,1.854,143.73.438,17.732-.526,35.539-1.057,52.981-3.8,9.687-1.523,19.689-3.94,26.72-9.757,8.926-7.406,11.138-19.947,5.158-29.232-10.034-15.576-37.767-19.447-44.789-36.162-3.862-9.2.1-19.45,5.712-27.982,12.035-18.308,32.206-34.365,33.27-55.291.73-14.37-8.967-28.763-23.96-35.564-15.717-7.129-37.509-6.232-49.1,5.568C333.142,134.359,312.163,139.033,294.179,138.409Z" transform="translate(-100.544 -103.35)" fill="#1bbca5" opacity="0.1"/><path d="M241.591,432.774a11.944,11.944,0,0,0-1.259-3.283,11.5,11.5,0,0,0-2.061-2.257c-2.282-2.071-5.083-4.173-8.107-3.651a10.821,10.821,0,0,0-2.688.982c-.441.2-.884.409-1.338.582a6.664,6.664,0,0,1-4.035.352c-.692-.186-1.338-.519-2.021-.727a6.4,6.4,0,0,0-.991-.214,16.874,16.874,0,0,0,1.917-1.01c3.393-2.077,6.1-5.832,5.722-9.848a16.259,16.259,0,0,0-1.051-3.918l-1.209-3.342a14.293,14.293,0,0,0-2.017-4.126,10.44,10.44,0,0,0-4.132-2.927,40.1,40.1,0,0,0-10.632-2.467l-.252-.035V357.818a2.518,2.518,0,0,0-2.518-2.518h-4.752q-.315-1.926-.629-3.846c-.6-3.654-1.218-7.374-2.9-10.663-1.1-2.153-2.855-4.208-5.218-4.63a5.059,5.059,0,0,1-1.356-.315c-.692-.34-1.07-1.1-1.6-1.652-1.372-1.438-3.6-1.46-5.442-2.2a28.46,28.46,0,0,1-4.431-2.795c-1.479-.935-3.317-1.6-4.954-.991a3.32,3.32,0,0,1-.035.356l-1.051-.485a11.58,11.58,0,0,1-3.2-1.926,9.185,9.185,0,0,1-2.275-4.113c-.05-.161-.1-.315-.148-.488a14.613,14.613,0,0,0,3.915-7.475l.255.828a5.5,5.5,0,0,0,.2.548,2.159,2.159,0,0,0,.629.891,1.118,1.118,0,0,0,.264.154,1.1,1.1,0,0,0,.271.069,1.008,1.008,0,0,0,.39-.028,1.489,1.489,0,0,0,.944-.875,1.889,1.889,0,0,0,.11-.384,1.979,1.979,0,0,0,.022-.239v-.327a.615.615,0,0,0-.016-.157v-.082a.916.916,0,0,0-.031-.186c-.013-.06,0-.035,0-.05-.016-.079-.035-.16-.05-.239v-.06c0-.019-.028-.129-.044-.2s-.022-.085-.031-.129v-.019h0c-.031-.126-.06-.249-.088-.375a10.821,10.821,0,0,1-.173-3.324,35.59,35.59,0,0,1,.9-4.831l.066-.286c.025-.11.05-.22.072-.334.05-.227.1-.453.148-.683h0l.113-.579.085-.516V302.6a14.92,14.92,0,0,0,.11-3.534h0a7.438,7.438,0,0,0-1.772-4.444c-.79-.878-1.832-1.526-2.565-2.449-.686-.862-1.073-1.926-1.784-2.773-1.964-2.345-7.006-4.151-10.1-4.466-3.544-.359-9.269.548-12.126,2.641a11.719,11.719,0,0,0-2.518,2.946,14.536,14.536,0,0,1-5.058,5.036,6.141,6.141,0,0,0-2.3,1.454,3.931,3.931,0,0,0-.614,1.63,32.327,32.327,0,0,0-.648,6.225h0v.787a5.738,5.738,0,0,0,.491,2.276c.05.107.107.211.167.315l.038.066a12.522,12.522,0,0,1,1.007,1.715,2.274,2.274,0,0,1,.154.522,3.852,3.852,0,0,1-.088,1.379h0a1.21,1.21,0,0,1-.041.208l-.028.135a.265.265,0,0,1-.025.138c-.025.135-.047.271-.066.4h0a2.832,2.832,0,0,0,.069,1.089,1.432,1.432,0,0,0,.7.944,2.046,2.046,0,0,0,.567.176c.2.035.4.057.595.1a2.937,2.937,0,0,1,.721.267,2.9,2.9,0,0,1,.607.39,3.45,3.45,0,0,1,.261.264,4.4,4.4,0,0,1,.447.611q.1.167.189.34a7.764,7.764,0,0,1,.538,1.423c.082.293.151.589.211.884.028.132.053.264.076.393s.044.261.063.39h0a.917.917,0,0,0,.252-.05,1.7,1.7,0,0,0,.866-1.227c.025-.088.047-.173.066-.258.072-.315.148-.661.22-.991a14.594,14.594,0,0,0,5.744,6.326c.088.261.173.519.249.784a5.322,5.322,0,0,1-.1,4.164,4.406,4.406,0,0,1-2.323,1.807,1.536,1.536,0,0,0-.519-.441,2.4,2.4,0,0,0-2.518.708c-1.259,1.139-2.285,2.773-3.94,3.147a4.548,4.548,0,0,0-1.756.475,4.092,4.092,0,0,0-.815,1.07,3.751,3.751,0,0,1-3.22,1.605c-.576-.028-1.259-.161-1.652.261-.293.315-.315.812-.629,1.111-.422.415-1.114.214-1.7.189a3.4,3.4,0,0,0-2.8,1.605,10.486,10.486,0,0,0-1.259,3.147v.019a2.255,2.255,0,0,0-.23.192,3.321,3.321,0,0,0-.7,1.127,53.777,53.777,0,0,0-4.438,18.311,1.889,1.889,0,0,1-.2.888,4.376,4.376,0,0,1-.463.5,1.766,1.766,0,0,0,.293,2.518,1.984,1.984,0,0,1,.337-.447c-.035.145-.066.286-.088.415a11.17,11.17,0,0,0-.035,2.77q.447,6.559.9,13.108c.085,1.237.17,2.471.283,3.7q.33,3.582.944,7.135a3.078,3.078,0,0,0,.069.315c-2.565.815-4.847,2.288-5.807,4.746-.334.85-.485,1.775-.894,2.59-.45.894-1.19,1.608-1.681,2.483a7.548,7.548,0,0,0-.576,5.036,16.727,16.727,0,0,0,4.721,8.62h-.315a4.922,4.922,0,0,0-2.15.771,14.6,14.6,0,0,0-6.77,14.811,6.354,6.354,0,0,0,1.3,3.084,4.881,4.881,0,0,0,2.291,1.4,7.961,7.961,0,0,0,1.69.315c3.871.315,7.62-1.479,11.5-1.63a30.829,30.829,0,0,1,3.849.179q2.8.233,5.618.3a7.435,7.435,0,0,0,6.71-3.018,8.215,8.215,0,0,0,1.187-1.869c1.655-.094,3.484-.239,4.806-.346l.019.183a2.511,2.511,0,0,0,.686,1.75,2.4,2.4,0,0,0,.944.387,40.862,40.862,0,0,0,9.668,1.574,40.814,40.814,0,0,0,4.592-.353l5.75-.664a28.645,28.645,0,0,1,4.941,1.076c1.662.563,3.213,1.4,4.837,2.065a48.191,48.191,0,0,0,11.859,2.612,2.41,2.41,0,0,0,1.98-.315c.655-.629.437-1.681.252-2.562-.076-.362-.132-.724-.176-1.089a55.156,55.156,0,0,1,7.944,2.757l.45.2c.132.686.765,1.234,1.372,1.973a5.034,5.034,0,0,0,.7.862,2.32,2.32,0,0,0,1,.359,46.522,46.522,0,0,0,12.882.582,13.175,13.175,0,0,1,2.656-.091,11.508,11.508,0,0,1,1.92.431l3.641,1.045A24.667,24.667,0,0,0,234.6,445.7a10.513,10.513,0,0,0,1.677-.242,7.882,7.882,0,0,0,5.313-3.72C243.086,439.043,242.4,435.732,241.591,432.774Z" transform="translate(-100.361 -227.733)" fill="url(#a)"/><path d="M203.925,735.993c-.664-1.511-1.294-3.248-.629-4.759a4.044,4.044,0,0,1,2.093-1.967,10.071,10.071,0,0,1,2.833-.7,39.535,39.535,0,0,1,9.209-.126,15,15,0,0,1-.655,5.272c-.368,1.574-.579,1.806-2.2,1.888C213.521,735.66,204.173,736.551,203.925,735.993Z" transform="translate(-164.575 -531.567)" fill="#fbbebe"/><ellipse cx="45.006" cy="12.589" rx="45.006" ry="12.589" transform="translate(22.37 169.058)" fill="#464353"/><ellipse cx="45.006" cy="12.589" rx="45.006" ry="12.589" transform="translate(22.37 169.058)" opacity="0.1"/><path d="M254.034,413.535a14,14,0,0,1-7.22,6.559,18.121,18.121,0,0,1-5.731,1.089,16.325,16.325,0,0,1-6.326-.771,14.472,14.472,0,0,1-6.609-5.3,32.334,32.334,0,0,1-3.837-7.66,8.515,8.515,0,0,1-.784-4.353c1.621-.368,3.4-.91,4.233-2.348a5.223,5.223,0,0,0,.1-4.123c-.116-.4-.252-.8-.387-1.177-.315-.913-1.4-2.647-.629-3.427.482-.494,2.5-.746,3.194-1.067,2.143-.988,4.12-2.417,6.474-2.886a15.585,15.585,0,0,1,6.172.4,2.03,2.03,0,0,1,.762.274,1.832,1.832,0,0,1,.566.85c.579,1.41.919,2.968,1.385,4.438a9.072,9.072,0,0,0,2.275,4.076,11.616,11.616,0,0,0,3.2,1.907l2.788,1.278a3.666,3.666,0,0,1,1.319.853,3.338,3.338,0,0,1,.629,1.712A16,16,0,0,1,254.034,413.535Z" transform="translate(-178.589 -298.346)" fill="#fbbebe"/><path d="M252.177,394.031a14.477,14.477,0,0,1-17.521,2.6c-.116-.4-.252-.8-.387-1.177-.315-.913-1.4-2.647-.629-3.427.482-.494,2.5-.746,3.194-1.067,2.143-.988,4.12-2.417,6.474-2.886a15.585,15.585,0,0,1,6.172.4,2.03,2.03,0,0,1,.762.274,1.832,1.832,0,0,1,.567.85C251.371,391,251.711,392.561,252.177,394.031Z" transform="translate(-185.377 -298.346)" opacity="0.1"/><circle cx="14.477" cy="14.477" r="14.477" transform="translate(41.883 70.548)" fill="#fbbebe"/><path d="M238.016,456.5l-1.19-7.207c-.6-3.616-1.221-7.3-2.9-10.559-1.1-2.134-2.858-4.167-5.221-4.589a5.05,5.05,0,0,1-1.36-.315c-.692-.334-1.07-1.083-1.6-1.637-1.372-1.423-3.607-1.445-5.445-2.168a27.826,27.826,0,0,1-4.431-2.766c-1.479-.925-3.32-1.574-4.957-.982a24.843,24.843,0,0,1-1.74,8.262,12.362,12.362,0,0,1-18.651,4.645,15.533,15.533,0,0,1-5.439-8.778c-.2-.831-.437-1.785-1.2-2.165a2.411,2.411,0,0,0-2.518.7c-1.259,1.13-2.288,2.748-3.944,3.128a4.6,4.6,0,0,0-1.756.472,4,4,0,0,0-.818,1.061,3.777,3.777,0,0,1-3.22,1.592c-.576-.028-1.259-.16-1.652.258-.293.315-.315.806-.629,1.1-.425.412-1.114.211-1.706.189a3.441,3.441,0,0,0-2.8,1.574,10.15,10.15,0,0,0-1.259,3.1c3.44,7.66,6.587,15.33,10.027,22.991a1.96,1.96,0,0,1,.249.944,2.3,2.3,0,0,1-.428.944c-1.687,2.71-1.633,6.118-1.448,9.3s.412,6.549-1.01,9.4c-.387.784-.891,1.5-1.259,2.285-.862,1.775-1.174,7.453-.67,9.36h71.154c-1.356-3.73-.84-11.214-.557-15.173a55.352,55.352,0,0,0-.535-8.306C238.611,467.511,238.95,462.145,238.016,456.5Z" transform="translate(-137.546 -324.488)" fill="#1bbca5"/><path d="M146.021,539.674a11.142,11.142,0,0,0-.038,2.748l.9,12.989c.085,1.224.17,2.445.283,3.667.217,2.37.541,4.721.944,7.069a1.259,1.259,0,0,0,1.29,1.224,46.1,46.1,0,0,0,12.158.579c6.2-.346,12.391-1.136,18.6-1,1.6.035,3.462,0,4.431-1.259s.406-3.3-.859-4.312a7.274,7.274,0,0,0-4.608-1.259c-2.15-.022-4.3.283-6.442.157a31.922,31.922,0,0,1-5.8-1.067l-5.35-1.331a20.626,20.626,0,0,1,1.407-4.686A24.338,24.338,0,0,0,165,544.72c.019-2.924-1.083-6-3.478-7.673-1.97-1.375-4.507-1.63-6.908-1.574-1.747.05-4.765-.368-6.361.315C146.988,536.342,146.258,538.438,146.021,539.674Z" transform="translate(-125.449 -399.417)" fill="#fbbebe"/><path d="M288.141,642.8a6.783,6.783,0,0,1,3.327-.1,40.485,40.485,0,0,1,10.638,2.445,10.445,10.445,0,0,1,4.135,2.9,14.341,14.341,0,0,1,2.017,4.091l1.209,3.311a15.939,15.939,0,0,1,1.054,3.881c.378,3.962-2.332,7.7-5.741,9.756s-7.421,2.792-11.33,3.56-7.834,1.618-11.727,2.518a47.224,47.224,0,0,1-5.517,1.086c-4.167.472-8.523-.223-12.482,1.155a47.517,47.517,0,0,1-4.752,1.75,29.578,29.578,0,0,1-3.286.5l-7.494.856a40.9,40.9,0,0,1-4.6.352,41.178,41.178,0,0,1-9.672-1.548,1.842,1.842,0,0,1-1.63-2.115q-.482-4.22-.843-8.45a3.169,3.169,0,0,1,3.346-4.1,77.706,77.706,0,0,1,14.377-1c1.829-1.829,4.844-1.838,7.239-2.833a21.53,21.53,0,0,0,2.552-1.388,33.361,33.361,0,0,1,14.015-4.428,13.042,13.042,0,0,0,2.867-.409c1.854-.576,3.544-2.143,5.448-1.759a4.407,4.407,0,0,1,.944-1.97c.271-.23.6-.384.853-.629a2.582,2.582,0,0,0,.494-2.112,6.184,6.184,0,0,1-.063-2.228,3.083,3.083,0,0,1,.349-.777A4.254,4.254,0,0,1,288.141,642.8Z" transform="translate(-184.031 -472.842)" fill="#464353"/><path d="M288.141,642.8a6.783,6.783,0,0,1,3.327-.1,40.485,40.485,0,0,1,10.638,2.445,10.445,10.445,0,0,1,4.135,2.9,14.341,14.341,0,0,1,2.017,4.091l1.209,3.311a15.939,15.939,0,0,1,1.054,3.881c.378,3.962-2.332,7.7-5.741,9.756s-7.421,2.792-11.33,3.56-7.834,1.618-11.727,2.518a47.224,47.224,0,0,1-5.517,1.086c-4.167.472-8.523-.223-12.482,1.155a47.517,47.517,0,0,1-4.752,1.75,29.578,29.578,0,0,1-3.286.5l-7.494.856a40.9,40.9,0,0,1-4.6.352,41.178,41.178,0,0,1-9.672-1.548,1.842,1.842,0,0,1-1.63-2.115q-.482-4.22-.843-8.45a3.169,3.169,0,0,1,3.346-4.1,77.706,77.706,0,0,1,14.377-1c1.829-1.829,4.844-1.838,7.239-2.833a21.53,21.53,0,0,0,2.552-1.388,33.361,33.361,0,0,1,14.015-4.428,13.042,13.042,0,0,0,2.867-.409c1.854-.576,3.544-2.143,5.448-1.759a4.407,4.407,0,0,1,.944-1.97c.271-.23.6-.384.853-.629a2.582,2.582,0,0,0,.494-2.112,6.184,6.184,0,0,1-.063-2.228,3.083,3.083,0,0,1,.349-.777A4.254,4.254,0,0,1,288.141,642.8Z" transform="translate(-184.031 -472.842)" opacity="0.05"/><path d="M142.839,724.1a7.472,7.472,0,0,1-6.713,2.99q-2.814-.066-5.621-.293a31.55,31.55,0,0,0-3.852-.179c-3.884.151-7.632,1.929-11.506,1.618a8.156,8.156,0,0,1-1.69-.315,4.919,4.919,0,0,1-2.294-1.391,6.269,6.269,0,0,1-1.3-3.056,14.4,14.4,0,0,1,6.773-14.669,4.966,4.966,0,0,1,2.153-.765,5.1,5.1,0,0,1,2.178.478l.047.019a16.471,16.471,0,0,1,5.394,3.6,3.039,3.039,0,0,0,.825.664,2.832,2.832,0,0,0,.972.183l4.136.261a9.8,9.8,0,0,1,2.077.286,16.506,16.506,0,0,1,2.184.944,27.959,27.959,0,0,0,7.1,1.643,1.061,1.061,0,0,1,.629.252.985.985,0,0,1,.2.409,8.029,8.029,0,0,1-1.681,7.321Z" transform="translate(-100.594 -517.729)" fill="#3f3d56"/><path d="M121.009,708.547a24.833,24.833,0,0,0-4.139,5.174,25.9,25.9,0,0,0-3.38,10.241,19.01,19.01,0,0,0-.035,3.969,4.919,4.919,0,0,1-2.294-1.391,6.269,6.269,0,0,1-1.3-3.056,14.4,14.4,0,0,1,6.773-14.669,4.965,4.965,0,0,1,2.153-.765,5.1,5.1,0,0,1,2.178.478Z" transform="translate(-100.594 -517.736)" opacity="0.1"/><path d="M379.2,733.221c2.313-.063,4.91-.179,6.609,1.379,1.621,1.473,1.835,3.9,1.942,6.09l.123,2.54a5.073,5.073,0,0,1-.242,2.291,3.529,3.529,0,0,1-3.462,1.794,11.641,11.641,0,0,1-3.931-1.227,55.3,55.3,0,0,0-10.7-3.371q.179-2.634.6-5.243c.192-1.205.223-3.223,1.029-4.224.853-1.057,1.964-.485,3.122-.289A25.076,25.076,0,0,0,379.2,733.221Z" transform="translate(-278.692 -534.579)" fill="#fbbebe"/><path d="M149.9,638.281c0,.315-.494,0-.538-.337a7.666,7.666,0,0,0-4.721-5.665,15.451,15.451,0,0,0-7.585-.831c-3.855.365-8.183,1.841-9.593,5.445-.334.843-.485,1.756-.894,2.565-.453.888-1.193,1.6-1.684,2.458a7.477,7.477,0,0,0-.576,5.007c.821,4.5,3.9,8.35,7.629,11.015s8.088,4.258,12.435,5.693a215.66,215.66,0,0,0,35.25,8.419,33.873,33.873,0,0,1,5.753,1.186c1.662.557,3.217,1.391,4.841,2.046a48.606,48.606,0,0,0,11.865,2.59,2.434,2.434,0,0,0,1.98-.315c.655-.607.437-1.665.252-2.537a13.643,13.643,0,0,1,1.608-9.681c.674-1.133,1.548-2.294,1.423-3.607a3.623,3.623,0,0,0-3.191-2.858,15.98,15.98,0,0,0-4.582.315,2.455,2.455,0,0,1-1.558-.154,3.115,3.115,0,0,1-.611-.541,6.9,6.9,0,0,0-8.038-1.124c-.563.315-1.416-.387-2-.651l-6.619-3c-7.6-3.44-15.245-6.9-23.29-9.074a4.893,4.893,0,0,1-1.794-.746c-.4-.315-.686-.743-1.054-1.092a13.437,13.437,0,0,0-2.883-1.6C150.758,640.676,149.678,639.361,149.9,638.281Z" transform="translate(-110.521 -465.16)" fill="#464353"/><path d="M444.355,744.813a7.877,7.877,0,0,1-5.313,3.686,10.545,10.545,0,0,1-1.681.239,24.83,24.83,0,0,1-8.221-1.36l-3.645-1.026a11.5,11.5,0,0,0-1.92-.428,13.175,13.175,0,0,0-2.656.091,47.079,47.079,0,0,1-12.9-.579,2.276,2.276,0,0,1-1-.356,4.957,4.957,0,0,1-.7-.853c-.991-1.193-2.058-1.888-.884-3.462.677-.913,1.932-1.369,2.458-2.417a5.388,5.388,0,0,0-.123-3.619c-.425-1.495-1.822-2.14-2.323-3.512a2.473,2.473,0,0,1,1.2-2.8,5,5,0,0,1,3.21-.463c1.092.145,2.162.453,3.261.538,3.229.258,6.531-1.407,9.631-.469.683.208,1.328.538,2.021.721a6.718,6.718,0,0,0,4.038-.349c.453-.17.9-.374,1.338-.576a10.77,10.77,0,0,1,2.691-.972c3.024-.519,5.829,1.574,8.111,3.616a11.471,11.471,0,0,1,2.061,2.235,11.22,11.22,0,0,1,1.259,3.251C445.108,738.858,445.8,742.138,444.355,744.813Z" transform="translate(-302.94 -530.56)" fill="#3f3d56"/><path d="M499.311,744.772A7.877,7.877,0,0,1,494,748.458a10.289,10.289,0,0,0,1.117-5.4,17.052,17.052,0,0,0-3.182-8.3,29.4,29.4,0,0,0-3.506-4.271c-1-1.007-2.231-1.807-3.308-2.729a10.773,10.773,0,0,1,2.691-.973c3.025-.519,5.829,1.574,8.111,3.616a11.469,11.469,0,0,1,2.061,2.235,11.218,11.218,0,0,1,1.259,3.251C500.063,738.817,500.753,742.1,499.311,744.772Z" transform="translate(-357.896 -530.519)" opacity="0.1"/><path d="M149.472,471.239a3.257,3.257,0,0,0-.7,1.117,52.831,52.831,0,0,0-4.438,18.135,1.813,1.813,0,0,1-.2.878,3.838,3.838,0,0,1-.463.5,1.737,1.737,0,0,0,.3,2.518,3.383,3.383,0,0,1,2.867-1.382c5.291-.419,10.458,2.043,15.765,1.857-.375-1.294-.913-2.537-1.218-3.846-1.35-5.813,2.017-12.142-.047-17.741a4.575,4.575,0,0,0-2.187-2.713,5.827,5.827,0,0,0-1.4-.371c-1.341-.242-4.01-1.278-5.306-.862-.478.154-.667.6-1.064.875A10.221,10.221,0,0,0,149.472,471.239Z" transform="translate(-123.628 -354.08)" fill="#1bbca5"/><rect width="70.184" height="44.691" rx="7.97" transform="translate(37.004 128.615)" fill="#3f3d56"/><circle cx="1.888" cy="1.888" r="1.888" transform="translate(70.051 149.073)" fill="#fff"/><path d="M203.915,293.028a11.535,11.535,0,0,0-2.518,2.918,14.409,14.409,0,0,1-5.061,4.979,6.143,6.143,0,0,0-2.3,1.441,3.884,3.884,0,0,0-.614,1.615,31.991,31.991,0,0,0-.648,6.169,6.856,6.856,0,0,0,.5,3.034c.431.881,1.209,1.627,1.369,2.587a7.837,7.837,0,0,1-.252,2.247,1.9,1.9,0,0,0,.768,2,4.657,4.657,0,0,0,1.164.274c2.093.466,2.795,2.921,3.113,4.951.711-.041,1.032-.856,1.18-1.52l2.181-9.7c.236-1.051.629-2.269,1.678-2.637a5.372,5.372,0,0,1,2.2.047c2.88.236,5.316-1.989,8.133-2.6a10.387,10.387,0,0,1,2.741-.183c2.222.11,4.806,1.023,5.278,3.1.079.337.126.74.441.906s.645.025.976,0c1.41-.142,2.241,1.445,2.647,2.741l1.479,4.721c.22.714.592,1.555,1.366,1.646a1.427,1.427,0,0,0,1.429-1.259,5.515,5.515,0,0,0-.28-2.039c-.7-3.1.368-6.272,1.017-9.379s.765-6.675-1.41-9.067c-.79-.866-1.829-1.511-2.565-2.423-.686-.856-1.073-1.907-1.785-2.748-1.967-2.32-7.012-4.11-10.106-4.406C212.5,290.057,206.772,290.954,203.915,293.028Z" transform="translate(-157.556 -231.5)" fill="#3f3d56"/><g transform="translate(35.217 72.905)" opacity="0.1"><path d="M233.244,354.552c-.774-.094-1.146-.944-1.366-1.646q-.74-2.364-1.479-4.721c-.406-1.3-1.237-2.886-2.647-2.741-.33.035-.686.164-.976,0s-.362-.57-.441-.906c-.472-2.077-3.056-2.987-5.278-3.1a10.522,10.522,0,0,0-2.741.179c-2.817.629-5.253,2.833-8.133,2.6a5.43,5.43,0,0,0-2.2-.044c-1.061.365-1.441,1.574-1.678,2.637l-2.181,9.694c-.148.667-.469,1.482-1.18,1.52-.315-2.027-1.02-4.482-3.113-4.948a4.947,4.947,0,0,1-1.164-.274,1.366,1.366,0,0,1-.607-.677c-.057.293-.123.585-.161.878a1.91,1.91,0,0,0,.768,2,4.655,4.655,0,0,0,1.164.274c2.093.466,2.795,2.921,3.113,4.951.711-.041,1.032-.856,1.18-1.52l2.181-9.7c.236-1.051.629-2.269,1.678-2.637a5.371,5.371,0,0,1,2.2.047c2.88.236,5.316-1.989,8.133-2.6a10.385,10.385,0,0,1,2.741-.183c2.222.11,4.806,1.023,5.278,3.1.079.337.126.74.441.906s.645.025.976,0c1.41-.142,2.241,1.445,2.647,2.741q.736,2.364,1.479,4.721c.22.714.592,1.555,1.366,1.646a1.427,1.427,0,0,0,1.429-1.259,4.273,4.273,0,0,0-.189-1.671A1.3,1.3,0,0,1,233.244,354.552Z" transform="translate(-196.27 -339.398)"/><path d="M194.649,354.365c-.16-.96-.944-1.706-1.369-2.587a5.177,5.177,0,0,1-.466-1.888c0,.352-.031.7-.035,1.061a6.856,6.856,0,0,0,.5,3.034c.349.714.925,1.344,1.215,2.071A4.74,4.74,0,0,0,194.649,354.365Z" transform="translate(-192.78 -345.204)"/><path d="M314.437,337.464c-.573,2.744-1.467,5.539-1.19,8.29a53.976,53.976,0,0,1,1.19-6.087A16.049,16.049,0,0,0,314.8,335,19.24,19.24,0,0,1,314.437,337.464Z" transform="translate(-275.297 -335)"/></g><g transform="translate(94.225 38.603)" opacity="0.8"><line x2="196.724" transform="translate(9.65 52.821)" fill="none" stroke="#3f3d56" stroke-miterlimit="10" stroke-width="3"/><path d="M466.46,356.567s9.407,1.306,4.535-8.787,13.219-8.183,13.219-8.183" transform="translate(-439.334 -303.749)" fill="none" stroke="#3f3d56" stroke-miterlimit="10" stroke-width="3"/><path d="M665.53,393.711s9.407-1.3,4.535,8.79,13.219,8.183,13.219,8.183" transform="translate(-575.751 -340.893)" fill="none" stroke="#3f3d56" stroke-miterlimit="10" stroke-width="3"/><path d="M913.5,393.711s-9.41-1.3-4.535,8.79-13.218,8.183-13.218,8.183" transform="translate(-733.514 -340.893)" fill="none" stroke="#3f3d56" stroke-miterlimit="10" stroke-width="3"/><line x1="51.908" transform="translate(110.328 69.788)" fill="none" stroke="#3f3d56" stroke-miterlimit="10" stroke-width="3"/><circle cx="5.744" cy="5.744" r="5.744" transform="translate(3.906 47.077)" fill="#1bbca5"/><circle cx="5.744" cy="5.744" r="5.744" transform="translate(39.234 30.022)" fill="#3acc6c"/><circle cx="5.744" cy="5.744" r="5.744" transform="translate(39.234 47.077)" fill="#1bbca5"/><circle cx="5.744" cy="5.744" r="5.744" transform="translate(62.033 47.077)" fill="#1bbca5"/><circle cx="5.744" cy="5.744" r="5.744" transform="translate(101.884 63.959)" fill="#ff6584"/><circle cx="5.744" cy="5.744" r="5.744" transform="translate(131.997 63.959)" fill="#ff6584"/><circle cx="5.744" cy="5.744" r="5.744" transform="translate(130.426 47.077)" fill="#1bbca5"/><circle cx="5.744" cy="5.744" r="5.744" transform="translate(199.175 47.077)" fill="#1bbca5"/><circle cx="5.744" cy="5.744" r="5.744" transform="translate(171.051 47.077)" fill="#1bbca5"/><rect width="19.271" height="13.282" fill="#1bbca5"/><rect width="19.271" height="13.282" transform="translate(35.413)" fill="#3acc6c"/><rect width="19.271" height="13.282" transform="translate(97.912)" fill="#ff6584"/></g><g transform="translate(0.003 91.481)" opacity="0.1"><path d="M108.069,396.756s-23.532-9.9-26.617,7.96a4.345,4.345,0,0,0,.629,5.08s.482-1.234,2.754.041a11.7,11.7,0,0,0,2.568,1.045,5.779,5.779,0,0,0,3.657-.2h0s7.739-.419,14.248-10.543c0,0,2.792-1.725,2.93-2.373l-4.664.315s.359,3.415-1.574,5.464c0,0,1.712-5.3.891-5.448-.167-.031-2.464.271-2.464.271s.595,5.939-2.518,9.011c0,0,2.889-6.04,1.633-8.9l-3.443.664s.944,6.247-2.461,9.879c0,0,2.8-6.42,1.718-9.681l-3.3,1.108s.793,6.109-2.055,9.127c0,0,2.486-7.745,1.316-8.812a17.153,17.153,0,0,0-3.6,1.888s.469,4.406-1.341,6c0,0,1.111-5.35.56-5.571,0,0-3.443,2.593-4.494,4.831a13.054,13.054,0,0,1,4.063-5.35,7.245,7.245,0,0,0-4.091.576s1.19-2.269,4.925-1.193c0,0,2.766-1.917,3.32-1.888,0,0-3.534-1.574-6.087-1.378,0,0,2.738-1.574,6.949,1.054l3.289-1.187s-4.564-2.338-6.848-2.329c0,0,3.04-1.177,7.7,2.1l3.368-.686a26.779,26.779,0,0,0-6.323-2.851s3.053-.485,7.3,2.691l2.3-.192s-2.785-1.643-3.629-2.043-.806-.658-.806-.658a10.981,10.981,0,0,1,5.394,2.574S108.05,397.048,108.069,396.756Z" transform="translate(-80.893 -394.021)" fill="#1bbca5"/></g><g transform="translate(3.451 63.717)" opacity="0.1"><path d="M114.708,318.567s-8.334-19.283-20.341-10.44a3.573,3.573,0,0,0-2.518,3.368s.988-.46,1.615,1.6a9.474,9.474,0,0,0,.944,2.08,4.721,4.721,0,0,0,2.282,1.967h0s4.837,4.161,14.477,1.854c0,0,2.644.563,3.094.261l-2.946-2.477s-1.734,2.235-4.057,2.342c0,0,4.038-2.172,3.635-2.729-.082-.113-1.621-1.24-1.621-1.24s-3.028,3.865-6.609,3.925c0,0,5.158-1.945,6.043-4.359l-2.423-1.574s-3.056,4.252-7.147,4.472c0,0,5.322-2.219,6.537-4.774l-2.59-1.218s-3.009,4.091-6.411,4.246c0,0,5.892-3.185,5.8-4.485a13.666,13.666,0,0,0-3.223-.919s-2.225,2.88-4.211,2.8c0,0,3.711-2.546,3.509-2.99,0,0-3.525-.422-5.423.315a10.741,10.741,0,0,1,5.461-.862,5.917,5.917,0,0,0-2.754-1.983s2-.67,3.607,2.093a13.739,13.739,0,0,1,3.053.768,12.927,12.927,0,0,0-2.833-4.287s2.518.629,3.525,4.586l2.631,1.168s-1.379-3.991-2.744-5.284c0,0,2.477,1.032,3.383,5.634l2.392,1.508a22.075,22.075,0,0,0-2.131-5.3s2.09,1.454,2.8,5.756l1.479,1.2s-.721-2.562-.995-3.28-.1-.85-.1-.85a9.017,9.017,0,0,1,1.728,4.62S114.529,318.727,114.708,318.567Z" transform="translate(-91.85 -305.806)" fill="#1bbca5"/></g></g></svg>