<svg xmlns="http://www.w3.org/2000/svg" width="270.298" height="252.796" viewBox="0 0 270.298 252.796"><g transform="translate(0 0)"><path d="M827.593,604.414s33.44,1.729,25.651,12.255-28.255-6.175-28.255-6.175Z" transform="translate(-612.31 -424.806)" fill="#ffb8b8"/><path d="M633.22,313.448l6.806,1.7s3.97,11.911,6.806,22.688,8.508,43.107,8.508,43.107l43.974,30.818L694.069,423.5l-58.581-23.088-13.046-51.226Z" transform="translate(-479.56 -234.105)" fill="#1bbca5"/><path d="M440.25,291.607l-2.537,53.124,5.294,15.794L427.5,349.154Z" transform="translate(-280.187 -191.121)" opacity="0.2"/><path d="M549.148,634.386s7.374,19.852,8.508,33.465,2.269,24.39,2.269,24.39h-34.6l-6.806-10.21v10.209H478.248s-11.344-36.868-6.806-41.406,47.645-23.823,47.645-23.823Z" transform="translate(-379.891 -439.617)" fill="#2f2e41"/><rect width="200.209" height="0.689" transform="translate(34.976 252.107)" fill="#3f3d56"/><circle cx="21.554" cy="21.554" r="21.554" transform="translate(104.313 14.682)" fill="#ffb8b8"/><path d="M522.092,214.688l-1.7,24.957,21.554,28.927,10.777-27.226s-9.642-6.239-3.97-19.285Z" transform="translate(-412.674 -169.377)" fill="#ffb8b8"/><path d="M520.323,397.223c0,5.107-14.18,13.046-14.18,13.046V413.1l-5.672,2.836-12.478-24.955-3.4,27.223s-24.959,3.973-32.9,0-11.913-2.267-23.257-6.237,4.538-57.289,4.538-57.289l-11.344-82.244,24.783-12.392,1.306-.655,3.408-.627,5.224-.965,17.461,11.8,1.406,7.374.865,4.538,4.535-5.107,3.425-11.265,24.37,13.536-6.806,54.449S520.323,392.119,520.323,397.223Z" transform="translate(-347.947 -197.633)" fill="#1bbca5"/><path d="M455.284,713.428s26.091,20.987,13.613,24.957-19.285-21.554-19.285-21.554Z" transform="translate(-366.286 -496.255)" fill="#ffb8b8"/><path d="M394.938,301.414l-5.672-1.134s-8.508,4.538-9.075,13.613-7.941,72.6-7.941,72.6l23.823,64.094,19.285-7.374-18.718-60.124,14.18-52.183Z" transform="translate(-315.582 -225.475)" fill="#1bbca5"/><circle cx="2.068" cy="2.068" r="2.068" transform="translate(126.293 89.114)" fill="#2f2e41"/><circle cx="2.068" cy="2.068" r="2.068" transform="translate(126.293 102.553)" fill="#2f2e41"/><circle cx="2.068" cy="2.068" r="2.068" transform="translate(138.009 191.114)" fill="#2f2e41"/><path d="M509.525,97.352l-3.984-1.6s8.331-9.172,19.921-8.374l-3.26-3.589s7.969-3.19,15.213,5.184c3.808,4.4,8.214,9.577,10.961,15.406h4.267l-1.781,3.921,6.233,3.921-6.4-.7a21.915,21.915,0,0,1,.174,6.5,8.415,8.415,0,0,1-3.082,5.505h0s-4.941-10.228-4.941-11.823V115.7s-3.984-3.589-3.984-5.982L536.69,112.5H522.2l2.173-3.589-8.331,1.2,3.26-4.387-12.9,18.113S499.021,103.333,509.525,97.352Z" transform="translate(-401.856 -83.197)" fill="#2f2e41"/><circle cx="34.459" cy="34.459" r="34.459" transform="translate(201.379 97.708)" fill="#3f3d56"/><circle cx="29.635" cy="29.635" r="29.635" transform="translate(206.204 102.532)" opacity="0.1"/><path d="M877.139,450.8V446.49a10.015,10.015,0,0,1-5.752-1.879l.9-2.861a9.194,9.194,0,0,0,5.413,1.836,4.146,4.146,0,0,0,4.474-4.185c0-2.349-1.466-3.8-4.248-5.082-3.835-1.708-6.2-3.673-6.2-7.388a6.715,6.715,0,0,1,5.677-6.876v-4.313h2.331v4.143a9.146,9.146,0,0,1,4.887,1.495l-.94,2.819a8.306,8.306,0,0,0-4.737-1.452,3.609,3.609,0,0,0-3.985,3.673c0,2.221,1.391,3.331,4.662,4.869,3.872,1.794,5.827,4.014,5.827,7.815a7.147,7.147,0,0,1-5.94,7.26V450.8Z" transform="translate(-642.72 -301.149)" fill="#1bbca5"/><path d="M250.005,501.549,263.787,544.6,252.76,499.8Z" transform="translate(-163.855 -327.574)" opacity="0.2"/><path d="M234.521,314.611h-8.748a1.44,1.44,0,0,1-1.438-1.438V300.6a1.44,1.44,0,0,1,1.438-1.438h8.748a1.44,1.44,0,0,1,1.438,1.438v12.575A1.44,1.44,0,0,1,234.521,314.611Zm-8.748-14.762a.75.75,0,0,0-.749.749v12.575a.75.75,0,0,0,.749.749h8.748a.75.75,0,0,0,.749-.749V300.6a.75.75,0,0,0-.749-.749Z" transform="translate(-218.637 -224.74)" fill="#3f3d56"/><path d="M281.7,288.614h-7.9a1.864,1.864,0,0,1-1.862-1.862v-25.4a1.864,1.864,0,0,1,1.862-1.862h7.9a1.864,1.864,0,0,1,1.862,1.862v25.4A1.864,1.864,0,0,1,281.7,288.614Zm-7.9-28.431a1.174,1.174,0,0,0-1.173,1.173v25.4a1.174,1.174,0,0,0,1.173,1.173h7.9a1.174,1.174,0,0,0,1.173-1.173v-25.4a1.174,1.174,0,0,0-1.173-1.173Z" transform="translate(-249.835 -198.743)" fill="#3f3d56"/><path d="M328.992,264.7H321.7a2.17,2.17,0,0,1-2.167-2.167V225.167A2.17,2.17,0,0,1,321.7,223h7.29a2.17,2.17,0,0,1,2.167,2.167v37.361A2.17,2.17,0,0,1,328.992,264.7Zm-7.29-41.007a1.48,1.48,0,0,0-1.478,1.478v37.361a1.48,1.48,0,0,0,1.478,1.478h7.29a1.48,1.48,0,0,0,1.478-1.478V225.167a1.48,1.48,0,0,0-1.478-1.478Z" transform="translate(-281.032 -174.825)" fill="#3f3d56"/><rect width="6.561" height="10.662" transform="translate(8.229 76.814)" fill="#1bbca5"/><rect width="6.561" height="24.194" transform="translate(24.631 63.282)" fill="#1bbca5"/><rect width="6.561" height="36.769" transform="translate(41.034 50.707)" fill="#1bbca5"/><path d="M842.977,139.209H797.146a.345.345,0,0,1-.345-.345V92.345a.345.345,0,1,1,.689,0V138.52h45.486a.345.345,0,1,1,0,.689Z" transform="translate(-593.836 -88.966)" fill="#3f3d56"/><path d="M262.591,253.79H208.146a.344.344,0,0,1-.345-.345v-54.1a.345.345,0,1,1,.689,0V253.1h54.1a.345.345,0,1,1,0,.689Z" transform="translate(-207.801 -159.095)" fill="#3f3d56"/><path d="M824.326,187.079h-8.748a1.44,1.44,0,0,1-1.438-1.438V173.066a1.44,1.44,0,0,1,1.438-1.438h8.748a1.44,1.44,0,0,1,1.438,1.438v12.575A1.439,1.439,0,0,1,824.326,187.079Zm-8.748-14.762a.75.75,0,0,0-.749.749v12.575a.75.75,0,0,0,.749.749h8.748a.75.75,0,0,0,.749-.749V173.066a.75.75,0,0,0-.749-.749Z" transform="translate(-605.2 -141.155)" fill="#3f3d56"/><path d="M876.977,166.35h-8.052a1.788,1.788,0,0,1-1.786-1.786V141.786A1.788,1.788,0,0,1,868.926,140h8.052a1.788,1.788,0,0,1,1.786,1.786v22.777A1.788,1.788,0,0,1,876.977,166.35Zm-8.052-25.661a1.1,1.1,0,0,0-1.1,1.1v22.777a1.1,1.1,0,0,0,1.1,1.1h8.052a1.1,1.1,0,0,0,1.1-1.1V141.786a1.1,1.1,0,0,0-1.1-1.1Z" transform="translate(-639.936 -120.426)" fill="#3f3d56"/><rect width="6.561" height="10.662" transform="translate(211.314 32.987)" fill="#1bbca5"/><rect width="6.561" height="20.629" transform="translate(229.735 22.435)" fill="#1bbca5"/><circle cx="3.101" cy="3.101" r="3.101" transform="translate(211.58 20.608)" fill="#1bbca5"/><circle cx="3.101" cy="3.101" r="3.101" transform="translate(229.843 8.892)" fill="#1bbca5"/></g></svg>