<svg xmlns="http://www.w3.org/2000/svg" width="301.849" height="173.436" viewBox="0 0 301.849 173.436"><g transform="translate(0 0)"><circle cx="15.698" cy="15.698" r="15.698" transform="translate(49.705 122.555)" fill="#f2f2f2"/><circle cx="15.698" cy="15.698" r="15.698" transform="translate(52.257 120.258)" fill="#1bbca5"/><rect width="194.225" height="0.53" transform="translate(80.597 118.586)" fill="#3f3d56"/><path d="M231.308,137.44H162.37v-1.421H131.111v1.421H61.889a4.663,4.663,0,0,0-4.663,4.663v94.4a4.663,4.663,0,0,0,4.663,4.663H231.308a4.663,4.663,0,0,0,4.663-4.663V142.1a4.663,4.663,0,0,0-4.663-4.663Z" transform="translate(-50.122 -132.497)" fill="#3f3d56"/><rect width="166.241" height="93.777" transform="translate(13.356 13.183)" fill="#1bbca5"/><circle cx="1.705" cy="1.705" r="1.705" transform="translate(94.63 7.215)" fill="#1bbca5"/><path d="M169.105,143.531H50.406V49.754Z" transform="translate(-37.05 -36.571)" opacity="0.1"/><circle cx="15.98" cy="15.98" r="15.98" transform="translate(23.388 67.984)" fill="#f2f2f2"/><rect width="15.529" height="3.245" transform="translate(135.124 63.758)" fill="#3f3d56"/><rect width="53.076" height="1.391" transform="translate(116.35 38.495)" fill="#3f3d56"/><rect width="53.076" height="1.391" transform="translate(116.35 42.898)" fill="#3f3d56"/><rect width="53.076" height="1.391" transform="translate(116.35 47.302)" fill="#3f3d56"/><rect width="53.076" height="1.391" transform="translate(116.35 51.706)" fill="#3f3d56"/><rect width="53.076" height="1.391" transform="translate(116.35 56.11)" fill="#3f3d56"/><rect width="6.49" height="6.49" transform="translate(162.936 15.086)" fill="#f2f2f2"/><path d="M659.335,193.665h-7.88v-7.88h7.88Zm-7.538-.343h7.2v-7.2h-7.2Z" transform="translate(-486.896 -169.077)" fill="#3f3d56"/><path d="M220.932,516.074H204.708v-1.169a.232.232,0,0,0-.232-.232h-5.563a.232.232,0,0,0-.232.232v1.169H195.2v-1.169a.232.232,0,0,0-.232-.232h-5.562a.232.232,0,0,0-.232.232v1.169H185.7v-1.169a.232.232,0,0,0-.232-.232h-5.563a.232.232,0,0,0-.232.232v1.169H176.2v-1.169a.232.232,0,0,0-.232-.232h-5.563a.232.232,0,0,0-.232.232v1.169H166.7v-1.169a.232.232,0,0,0-.232-.232H160.9a.232.232,0,0,0-.232.232v1.169h-3.477v-1.169a.232.232,0,0,0-.232-.232H151.4a.232.232,0,0,0-.232.232v1.169h-3.477v-1.169a.232.232,0,0,0-.232-.232H103.887a.232.232,0,0,0-.232.232v1.169h-3.477v-1.169a.232.232,0,0,0-.232-.232H94.384a.232.232,0,0,0-.232.232v1.169H90.676v-1.169a.232.232,0,0,0-.232-.232H84.881a.232.232,0,0,0-.232.232v1.169H81.173v-1.169a.232.232,0,0,0-.232-.232H75.378a.232.232,0,0,0-.232.232v1.169H71.67v-1.169a.232.232,0,0,0-.232-.232H65.876a.232.232,0,0,0-.232.232v1.169H62.167v-1.169a.232.232,0,0,0-.232-.232H56.373a.232.232,0,0,0-.232.232v1.169H52.665v-1.169a.232.232,0,0,0-.232-.232H46.87a.232.232,0,0,0-.232.232v1.169H35.977a5.563,5.563,0,0,0-5.563,5.563v2.515a5.562,5.562,0,0,0,5.562,5.562H220.932a5.563,5.563,0,0,0,5.563-5.562v-2.515a5.563,5.563,0,0,0-5.562-5.562Z" transform="translate(-30.415 -410.819)" fill="#3f3d56"/><path d="M137.724,365.548a20.138,20.138,0,1,1,20.138-20.138,20.138,20.138,0,0,1-20.138,20.138Zm0-39.746a19.608,19.608,0,1,0,19.608,19.608A19.608,19.608,0,0,0,137.724,325.8Z" transform="translate(-94.488 -271.604)" fill="#3f3d56"/><rect width="67.568" height="0.53" transform="translate(155.319 8.623)" fill="#3f3d56"/><rect width="194.225" height="0.53" transform="translate(107.624 148.528)" fill="#3f3d56"/><rect width="67.568" height="0.53" transform="translate(51.053 172.906)" fill="#3f3d56"/><rect width="7.568" height="6.811" transform="translate(124.873 146.064)" fill="#1bbca5"/><path d="M521.424,659.737h-9.009v-9.009h9.009Zm-8.617-.392h8.225V651.12h-8.226Z" transform="translate(-384.698 -510.823)" fill="#3f3d56"/><rect width="6.811" height="7.568" transform="translate(211.15 6.054)" fill="#1bbca5"/><path d="M846.424,131.737h-9.009v-9.009h9.009Zm-8.617-.392h8.225V123.12h-8.225Z" transform="translate(-623.582 -122.728)" fill="#3f3d56"/><rect width="7.568" height="6.811" transform="translate(285.317 146.064)" fill="#1bbca5"/><path d="M1128.419,659.737h-9.009v-9.009h9.009Zm-8.617-.392h8.226V651.12H1119.8Z" transform="translate(-830.856 -510.823)" fill="#3f3d56"/><path d="M928.924,279.07h-.63V261.8a9.993,9.993,0,0,0-9.993-9.993H881.719a9.993,9.993,0,0,0-9.993,9.993v94.723a9.993,9.993,0,0,0,9.993,9.993H918.3a9.993,9.993,0,0,0,9.993-9.993V291.361h.63Z" transform="translate(-648.802 -217.608)" fill="#3f3d56"/><path d="M933.817,271.044v94.585a7.463,7.463,0,0,1-7.463,7.464H889.6a7.463,7.463,0,0,1-7.462-7.463V271.044a7.462,7.462,0,0,1,7.461-7.462h4.46a3.545,3.545,0,0,0,3.283,4.883H918.3a3.545,3.545,0,0,0,3.283-4.883h4.775a7.462,7.462,0,0,1,7.463,7.462Z" transform="translate(-656.453 -226.26)" fill="#1bbca5"/><rect width="10.95" height="3.245" transform="translate(246.048 99.687)" fill="#3f3d56"/><rect width="37.425" height="1.391" transform="translate(232.811 74.424)" fill="#3f3d56"/><rect width="37.425" height="1.391" transform="translate(232.811 78.827)" fill="#3f3d56"/><rect width="37.425" height="1.391" transform="translate(232.811 83.231)" fill="#3f3d56"/><rect width="37.425" height="1.391" transform="translate(232.811 87.635)" fill="#3f3d56"/><rect width="37.425" height="1.391" transform="translate(232.811 92.038)" fill="#3f3d56"/><rect width="6.49" height="6.49" transform="translate(246.341 55.956)" fill="#f2f2f2"/><path d="M969.474,340.032v7.88h7.88v-7.88Zm7.538,7.538h-7.2v-7.2h7.2Z" transform="translate(-720.649 -282.453)" fill="#3f3d56"/><path d="M933.817,497.322v10.1a7.463,7.463,0,0,1-7.463,7.464H889.6a7.463,7.463,0,0,1-7.462-7.463V456.492L913.1,480.957l.53.419,5.761,4.55.538.427Z" transform="translate(-656.453 -368.054)" opacity="0.1"/><circle cx="11.624" cy="11.624" r="11.624" transform="translate(236.719 120.52)" fill="#f2f2f2"/><path d="M286.639,649.377a23.053,23.053,0,1,1,23.053-23.053A23.053,23.053,0,0,1,286.639,649.377Zm0-45.575a22.523,22.523,0,1,0,22.523,22.523A22.523,22.523,0,0,0,286.639,603.8Z" transform="translate(-201.802 -475.941)" fill="#3f3d56"/><path d="M940.159,574.419a14.573,14.573,0,1,1,14.573-14.573A14.574,14.574,0,0,1,940.159,574.419Zm0-28.617A14.044,14.044,0,1,0,954.2,559.845,14.044,14.044,0,0,0,940.159,545.8Z" transform="translate(-688.39 -433.31)" fill="#3f3d56"/></g></svg>