<svg xmlns="http://www.w3.org/2000/svg" width="301.849" height="215.179" viewBox="0 0 301.849 215.179">
  <g id="Group_1317" data-name="Group 1317" transform="translate(0 0)">
    <ellipse id="Ellipse_393" data-name="Ellipse 393" cx="34.536" cy="8.423" rx="34.536" ry="8.423" transform="translate(232.777 198.332)" fill="#3f3d56"/>
    <path id="Path_3638" data-name="Path 3638" d="M442.24,156.889V268.362a5.009,5.009,0,0,1-5.009,5.007H391.975a5,5,0,0,1-5.009-5.007V156.889a5.009,5.009,0,0,1,5.009-5.009h6.773v.869a4.124,4.124,0,0,0,4.124,4.124h23.016a4.124,4.124,0,0,0,4.124-4.124v-.869h7.218A5.007,5.007,0,0,1,442.24,156.889Z" transform="translate(-295.858 -127.997)" fill="#1bbca5"/>
    <rect id="Rectangle_908" data-name="Rectangle 908" width="51.304" height="24.989" transform="translate(93.097 42.514)" fill="#3f3d56"/>
    <path id="Path_3639" data-name="Path 3639" d="M466.574,253.884c1.343,4.965,5.943,8.039,5.943,8.039s2.423-4.974,1.08-9.939-5.943-8.039-5.943-8.039S465.231,248.92,466.574,253.884Z" transform="translate(-352.822 -194.212)" fill="#fff"/>
    <path id="Path_3640" data-name="Path 3640" d="M451.05,265.581c3.685,3.587,4.135,9.1,4.135,9.1s-5.525-.3-9.21-3.889-4.136-9.1-4.136-9.1S447.365,261.994,451.05,265.581Z" transform="translate(-335.324 -206.976)" fill="#1bbca5"/>
    <path id="Path_3641" data-name="Path 3641" d="M492.1,253.884c-1.343,4.965-5.943,8.039-5.943,8.039s-2.423-4.974-1.08-9.939,5.943-8.039,5.943-8.039S493.442,248.92,492.1,253.884Z" transform="translate(-366.128 -194.212)" fill="#fff"/>
    <path id="Path_3642" data-name="Path 3642" d="M493.5,265.581c-3.685,3.587-4.135,9.1-4.135,9.1s5.525-.3,9.21-3.889,4.136-9.1,4.136-9.1S497.19,261.994,493.5,265.581Z" transform="translate(-369.508 -206.976)" fill="#1bbca5"/>
    <rect id="Rectangle_909" data-name="Rectangle 909" width="42.127" height="2.312" transform="translate(97.685 81.496)" fill="#f0f0f0"/>
    <rect id="Rectangle_910" data-name="Rectangle 910" width="42.127" height="2.312" transform="translate(97.685 85.221)" fill="#f0f0f0"/>
    <rect id="Rectangle_911" data-name="Rectangle 911" width="42.127" height="2.312" transform="translate(97.685 88.947)" fill="#f0f0f0"/>
    <rect id="Rectangle_912" data-name="Rectangle 912" width="42.127" height="2.312" transform="translate(97.685 92.673)" fill="#f0f0f0"/>
    <rect id="Rectangle_913" data-name="Rectangle 913" width="11.499" height="11.499" transform="matrix(0.815, 0.579, -0.579, 0.815, 117.385, 105.944)" fill="#f0f0f0"/>
    <path id="Path_3643" data-name="Path 3643" d="M483.139,496.256a2.654,2.654,0,1,1,2.654-2.654A2.654,2.654,0,0,1,483.139,496.256Zm0-4.865a2.211,2.211,0,1,0,2.211,2.211,2.211,2.211,0,0,0-2.211-2.211Z" transform="translate(-363.118 -371.862)" fill="#3f3d56"/>
    <path id="Path_3644" data-name="Path 3644" d="M117.758,71.831V183.3a5.009,5.009,0,0,1-5.009,5.007H67.494a5,5,0,0,1-5.009-5.007V71.831a5.009,5.009,0,0,1,5.009-5.009h6.773v.869a4.124,4.124,0,0,0,4.124,4.124h23.016a4.124,4.124,0,0,0,4.124-4.124v-.869h7.218A5.007,5.007,0,0,1,117.758,71.831Z" transform="translate(-62.485 -66.822)" fill="#f2f2f2"/>
    <path id="Path_3645" data-name="Path 3645" d="M125.606,182.211H81.379V142.627h44.227Zm-43.785-.442h43.343v-38.7H81.821Z" transform="translate(-76.074 -121.342)" fill="#3f3d56"/>
    <rect id="Rectangle_914" data-name="Rectangle 914" width="0.442" height="58.73" transform="translate(5.379 21.67) rotate(-48.206)" fill="#3f3d56"/>
    <rect id="Rectangle_915" data-name="Rectangle 915" width="58.73" height="0.442" transform="translate(5.378 60.482) rotate(-41.794)" fill="#3f3d56"/>
    <rect id="Rectangle_916" data-name="Rectangle 916" width="43.785" height="0.442" transform="translate(5.526 72.367)" fill="#3f3d56"/>
    <rect id="Rectangle_917" data-name="Rectangle 917" width="43.785" height="0.442" transform="translate(5.526 76.348)" fill="#3f3d56"/>
    <rect id="Rectangle_918" data-name="Rectangle 918" width="43.785" height="0.442" transform="translate(5.526 80.328)" fill="#3f3d56"/>
    <rect id="Rectangle_919" data-name="Rectangle 919" width="21.893" height="0.442" transform="translate(5.526 84.309)" fill="#3f3d56"/>
    <rect id="Rectangle_920" data-name="Rectangle 920" width="21.893" height="0.442" transform="translate(5.526 88.289)" fill="#3f3d56"/>
    <path id="Path_3646" data-name="Path 3646" d="M765.934,71.831V183.3a5.009,5.009,0,0,1-5.009,5.007H715.669a5,5,0,0,1-5.009-5.007V71.831a5.009,5.009,0,0,1,5.009-5.009h6.773v.869a4.124,4.124,0,0,0,4.124,4.124h23.016a4.124,4.124,0,0,0,4.124-4.124v-.869h7.218A5.007,5.007,0,0,1,765.934,71.831Z" transform="translate(-528.664 -66.822)" fill="#f2f2f2"/>
    <rect id="Rectangle_921" data-name="Rectangle 921" width="43.785" height="0.442" transform="translate(187.964 57.109)" fill="#3f3d56"/>
    <rect id="Rectangle_922" data-name="Rectangle 922" width="43.785" height="0.442" transform="translate(187.964 68.608)" fill="#3f3d56"/>
    <rect id="Rectangle_923" data-name="Rectangle 923" width="43.785" height="0.442" transform="translate(187.964 80.107)" fill="#3f3d56"/>
    <circle id="Ellipse_394" data-name="Ellipse 394" cx="7.189" cy="7.189" r="7.189" transform="translate(201.5 25.943)" fill="#1bbca5"/>
    <rect id="Rectangle_924" data-name="Rectangle 924" width="3.096" height="7.076" transform="translate(220.693 55.119)" fill="#1bbca5"/>
    <rect id="Rectangle_925" data-name="Rectangle 925" width="3.096" height="7.076" transform="translate(193.493 66.397)" fill="#1bbca5"/>
    <rect id="Rectangle_926" data-name="Rectangle 926" width="3.096" height="7.076" transform="translate(211.626 77.675)" fill="#1bbca5"/>
    <path id="Path_3647" data-name="Path 3647" d="M786.43,168.193a8.845,8.845,0,1,1,8.845-8.845A8.845,8.845,0,0,1,786.43,168.193Zm0-17.249a8.4,8.4,0,1,0,8.4,8.4,8.4,8.4,0,0,0-8.4-8.4Z" transform="translate(-576.798 -127.006)" fill="#3f3d56"/>
    <rect id="Rectangle_927" data-name="Rectangle 927" width="0.562" height="27.87" transform="translate(60.815 58.836) rotate(-39.546)" fill="#3f3d56"/>
    <path id="Path_3648" data-name="Path 3648" d="M337.627,347.737a16.971,16.971,0,0,0-5.116-2l2.674-.956,1.444-2.445A16.951,16.951,0,0,0,337.627,347.737Z" transform="translate(-256.693 -264.977)" fill="#3f3d56"/>
    <rect id="Rectangle_928" data-name="Rectangle 928" width="27.87" height="0.562" transform="translate(158.064 79.971) rotate(-50.466)" fill="#3f3d56"/>
    <path id="Path_3649" data-name="Path 3649" d="M618.506,347.737a16.973,16.973,0,0,0,1-5.4l1.444,2.445,2.674.955A16.954,16.954,0,0,0,618.506,347.737Z" transform="translate(-462.385 -264.976)" fill="#3f3d56"/>
    <path id="Path_3650" data-name="Path 3650" d="M998.468,438.205s0,40.994-6.458,55.876l-14.881,33.413s-9.547-.562-10.108-4.492l11.231-34.817,6.739-20.5,1.685-32.009Z" transform="translate(-713.043 -332.11)" fill="#2f2e41"/>
    <path id="Path_3651" data-name="Path 3651" d="M981.237,445.8l-2.527,17.128,1.685,37.625.842,20.778s3.369,9.266,2.246,10.108l-2.246,1.685s-8.985-1.123-9.266-1.685-5.616-42.96-5.616-42.96-10.95-34.255-10.389-34.817,3.089-8.985,3.089-8.985Z" transform="translate(-705.078 -338.583)" fill="#2f2e41"/>
    <path id="Path_3652" data-name="Path 3652" d="M1032.735,749.678l1.123,6.458s3.089,13.2,0,13.2-8.7-3.65-8.985-5.9.562-12.354.562-12.354Z" transform="translate(-754.611 -557.944)" fill="#2f2e41"/>
    <path id="Path_3653" data-name="Path 3653" d="M968.936,750.324s2.246,4.492,3.65,5.054,7.8,4.235,4.039,6.61-7.689.129-7.689.129L956.02,755.1s1.685-7.02,4.212-7.581S968.936,750.324,968.936,750.324Z" transform="translate(-705.131 -556.344)" fill="#2f2e41"/>
    <circle id="Ellipse_395" data-name="Ellipse 395" cx="10.108" cy="10.108" r="10.108" transform="translate(250.887 23.826)" fill="#ffb8b8"/>
    <path id="Path_3654" data-name="Path 3654" d="M997.248,190.678s1.966,12.916,3.931,14.6-4.212,7.581-7.02,7.3-5.9-6.458-5.9-6.458.842-8.143-.562-10.389S997.248,190.678,997.248,190.678Z" transform="translate(-727.828 -155.901)" fill="#ffb8b8"/>
    <path id="Path_3655" data-name="Path 3655" d="M978.775,238.4l4.768-4.4a18.052,18.052,0,0,0,5.62,4.683c3.65,1.965-7.02,22.182-7.02,22.182l-17.128-21.339s5.448-3.621,7.216-5.04Z" transform="translate(-711.601 -187.059)" fill="#3f3d56"/>
    <path id="Path_3656" data-name="Path 3656" d="M963.771,266.187s7.525-13.118,6.711-17.369c0,0,10.979,2.768,11.54,6.419s-5.335,16.847-5.335,16.847,4.773,33.413,1.965,33.694-30.886.562-31.448-.842.562-5.616-1.123-7.02-3.65-.562-2.808-2.808,4.492-5.054,3.369-6.739-1.4-1.123-1.123-2.246-.562-16-.562-16-5.9-16.285-4.492-17.408,8.768-3.892,8.768-3.892Z" transform="translate(-693.79 -197.717)" fill="#3f3d56"/>
    <path id="Path_3657" data-name="Path 3657" d="M1084.709,461.643s-.842,11.231-5.616,10.67.842-12.635.842-12.635Z" transform="translate(-792.265 -349.371)" fill="#ffb8b8"/>
    <path id="Path_3658" data-name="Path 3658" d="M955.015,457.767s1.685,6.739,3.65,6.177v-7.862l-.842-1.4Z" transform="translate(-704.409 -345.775)" fill="#ffb8b8"/>
    <path id="Path_3659" data-name="Path 3659" d="M966.1,157.2a1.747,1.747,0,0,0-.288-.813,1.319,1.319,0,0,0-.615-.389,2.761,2.761,0,0,0-3.29,1.41c-.259.565-.384,1.294-.952,1.545-.661.293-1.394-.33-1.654-1.005a16.561,16.561,0,0,0-.613-2.074,3.027,3.027,0,0,0-2.079-1.374c-.695-.147-1.545-.225-1.859-.862a1.706,1.706,0,0,1-.127-.771,8.136,8.136,0,0,1,.5-2.749c-2.751-.549-5.2,2.135-8,2.178a2.113,2.113,0,0,1-1.032-.2,2.652,2.652,0,0,1-1.08-1.75q-.3-1.084-.492-2.193l.9.412a3.524,3.524,0,0,1-.4-1.548,3.7,3.7,0,0,1,1.381.117l.065-1.61c.694.88,2.078.571,3.122.163a40.426,40.426,0,0,1,6.135-2.091,10.858,10.858,0,0,1,6.382.337,13.694,13.694,0,0,1,5.149,4.358,11.388,11.388,0,0,1,1.983,3.2,7.748,7.748,0,0,1-.017,4.942,9.739,9.739,0,0,1-2.469,4.184A18.133,18.133,0,0,1,966.1,157.2Z" transform="translate(-696.859 -121.807)" fill="#2f2e41"/>
    <path id="Path_3660" data-name="Path 3660" d="M931.438,259.678l-3.65.842s-4.212,4.493-4.492,8.7-.281,25.27-.281,25.27L928.35,311.9s-.562,3.931,0,3.931.842-.842.842.281-1.4,0,0,1.123L932,319.485l4.693-6.222s.361-2.483-.481-3.044-.842-.842-.562-1.685.842-1.123.562-1.685-1.123-1.4-1.123-1.965a2.1,2.1,0,0,0-.281-1.4c-.281-.281-2.246-7.02-2.246-7.02l1.123-21.9Z" transform="translate(-681.394 -205.527)" fill="#3f3d56"/>
    <path id="Path_3661" data-name="Path 3661" d="M1066.793,264.678l2.808,1.4s4.493,13.478,4.493,25.27.842,19.655.842,19.655,1.4,3.369.842,3.369-1.123,0-.562.842.842.562.562,1.4-.562-.562-.281.842,0,1.965-.562,1.965-.562,3.65-.562,3.65l-6.739-2.527s1.123-1.4.843-1.966a2.8,2.8,0,0,1-.281-1.123s1.4-.281,0-.842-.843-.562-.562-2.246,1.123-1.4.281-1.685-5.9-26.393-5.9-26.393Z" transform="translate(-781.369 -209.124)" fill="#3f3d56"/>
    <circle id="Ellipse_396" data-name="Ellipse 396" cx="0.842" cy="0.842" r="0.842" transform="translate(266.326 50.591)" fill="#2f2e41"/>
    <circle id="Ellipse_397" data-name="Ellipse 397" cx="0.842" cy="0.842" r="0.842" transform="translate(266.326 53.399)" fill="#2f2e41"/>
  </g>
</svg>
