<svg xmlns="http://www.w3.org/2000/svg" width="28.708" height="25.12" viewBox="0 0 28.708 25.12"><path d="M17.943,19.3a.9.9,0,0,1-.9.9H11.663a.9.9,0,0,1-.9-.9V16.6H0v8.074A2.759,2.759,0,0,0,2.691,27.37H26.017a2.759,2.759,0,0,0,2.691-2.691V16.6H17.943ZM26.017,7.633H21.531V4.941A2.759,2.759,0,0,0,18.84,2.25H9.868A2.759,2.759,0,0,0,7.177,4.941V7.633H2.691A2.759,2.759,0,0,0,0,10.324V14.81H28.708V10.324A2.759,2.759,0,0,0,26.017,7.633Zm-8.074,0H10.766V5.839h7.177Z" transform="translate(0 -2.25)" fill="#1988a7"/></svg>